<mxfile host="Electron" modified="2024-06-12T08:54:07.255Z" agent="Mozilla/5.0 (Macintosh; Intel Mac OS X 10_15_7) AppleWebKit/537.36 (KHTML, like Gecko) draw.io/21.6.8 Chrome/114.0.5735.289 Electron/25.5.0 Safari/537.36" etag="4UzOT-ZtiedIp9LX6aEU" version="21.6.8" type="device" pages="2">
  <diagram name="第 1 页" id="zTxfFH-Mh4wLfErBWU_6">
    <mxGraphModel dx="2114" dy="1304" grid="1" gridSize="10" guides="1" tooltips="1" connect="1" arrows="1" fold="1" page="0" pageScale="1" pageWidth="827" pageHeight="1169" math="0" shadow="0">
      <root>
        <mxCell id="0" />
        <mxCell id="1" parent="0" />
        <mxCell id="iMsWKxhrXHrFYSwetHIo-1" value="缝隙/转换" style="ellipse;whiteSpace=wrap;html=1;aspect=fixed;fontSize=16;fillColor=#ffe6cc;strokeColor=#d79b00;" vertex="1" parent="1">
          <mxGeometry x="-410" y="-80" width="170" height="170" as="geometry" />
        </mxCell>
        <mxCell id="iMsWKxhrXHrFYSwetHIo-2" value="后端" style="rounded=1;whiteSpace=wrap;html=1;fontSize=16;fillColor=#d5e8d4;strokeColor=#82b366;" vertex="1" parent="1">
          <mxGeometry x="-200" y="-200" width="120" height="60" as="geometry" />
        </mxCell>
        <mxCell id="iMsWKxhrXHrFYSwetHIo-3" value="前端" style="rounded=1;whiteSpace=wrap;html=1;fontSize=16;fillColor=#d5e8d4;strokeColor=#82b366;" vertex="1" parent="1">
          <mxGeometry x="-200" y="90" width="120" height="60" as="geometry" />
        </mxCell>
        <mxCell id="iMsWKxhrXHrFYSwetHIo-4" value="产品" style="rounded=1;whiteSpace=wrap;html=1;fontSize=16;fillColor=#d5e8d4;strokeColor=#82b366;" vertex="1" parent="1">
          <mxGeometry x="-560" y="90" width="120" height="60" as="geometry" />
        </mxCell>
        <mxCell id="iMsWKxhrXHrFYSwetHIo-5" value="...." style="rounded=1;whiteSpace=wrap;html=1;fontSize=16;fillColor=#d5e8d4;strokeColor=#82b366;" vertex="1" parent="1">
          <mxGeometry x="-385" y="170" width="120" height="60" as="geometry" />
        </mxCell>
        <mxCell id="iMsWKxhrXHrFYSwetHIo-6" value="用户" style="rounded=1;whiteSpace=wrap;html=1;fontSize=16;fillColor=#d5e8d4;strokeColor=#82b366;" vertex="1" parent="1">
          <mxGeometry x="-560" y="-200" width="120" height="60" as="geometry" />
        </mxCell>
        <mxCell id="iMsWKxhrXHrFYSwetHIo-7" value="" style="endArrow=classic;startArrow=classic;html=1;rounded=0;fontSize=12;startSize=8;endSize=8;curved=1;entryX=0;entryY=0;entryDx=0;entryDy=0;" edge="1" parent="1" source="iMsWKxhrXHrFYSwetHIo-6" target="iMsWKxhrXHrFYSwetHIo-1">
          <mxGeometry width="50" height="50" relative="1" as="geometry">
            <mxPoint x="-450" y="-90" as="sourcePoint" />
            <mxPoint x="-270" y="-170" as="targetPoint" />
          </mxGeometry>
        </mxCell>
        <mxCell id="iMsWKxhrXHrFYSwetHIo-9" value="" style="endArrow=classic;startArrow=classic;html=1;rounded=0;fontSize=12;startSize=8;endSize=8;curved=1;entryX=0;entryY=1;entryDx=0;entryDy=0;exitX=1;exitY=0.5;exitDx=0;exitDy=0;" edge="1" parent="1" source="iMsWKxhrXHrFYSwetHIo-4" target="iMsWKxhrXHrFYSwetHIo-1">
          <mxGeometry width="50" height="50" relative="1" as="geometry">
            <mxPoint x="-440" y="-80" as="sourcePoint" />
            <mxPoint x="-328" y="2" as="targetPoint" />
          </mxGeometry>
        </mxCell>
        <mxCell id="iMsWKxhrXHrFYSwetHIo-10" value="" style="endArrow=classic;startArrow=classic;html=1;rounded=0;fontSize=12;startSize=8;endSize=8;curved=1;exitX=0.5;exitY=0;exitDx=0;exitDy=0;" edge="1" parent="1" source="iMsWKxhrXHrFYSwetHIo-5" target="iMsWKxhrXHrFYSwetHIo-1">
          <mxGeometry width="50" height="50" relative="1" as="geometry">
            <mxPoint x="-440" y="140" as="sourcePoint" />
            <mxPoint x="-328" y="58" as="targetPoint" />
          </mxGeometry>
        </mxCell>
        <mxCell id="iMsWKxhrXHrFYSwetHIo-11" value="" style="endArrow=classic;startArrow=classic;html=1;rounded=0;fontSize=12;startSize=8;endSize=8;curved=1;exitX=0;exitY=0.5;exitDx=0;exitDy=0;entryX=1;entryY=1;entryDx=0;entryDy=0;" edge="1" parent="1" source="iMsWKxhrXHrFYSwetHIo-3" target="iMsWKxhrXHrFYSwetHIo-1">
          <mxGeometry width="50" height="50" relative="1" as="geometry">
            <mxPoint x="-280" y="180" as="sourcePoint" />
            <mxPoint x="-295" y="70" as="targetPoint" />
          </mxGeometry>
        </mxCell>
        <mxCell id="iMsWKxhrXHrFYSwetHIo-12" value="" style="endArrow=classic;startArrow=classic;html=1;rounded=0;fontSize=12;startSize=8;endSize=8;curved=1;" edge="1" parent="1" source="iMsWKxhrXHrFYSwetHIo-2" target="iMsWKxhrXHrFYSwetHIo-1">
          <mxGeometry width="50" height="50" relative="1" as="geometry">
            <mxPoint x="-130" y="130" as="sourcePoint" />
            <mxPoint x="-260" y="30" as="targetPoint" />
          </mxGeometry>
        </mxCell>
        <mxCell id="iMsWKxhrXHrFYSwetHIo-14" style="edgeStyle=none;curved=1;rounded=0;orthogonalLoop=1;jettySize=auto;html=1;fontSize=12;startSize=8;endSize=8;" edge="1" parent="1" source="iMsWKxhrXHrFYSwetHIo-13" target="iMsWKxhrXHrFYSwetHIo-1">
          <mxGeometry relative="1" as="geometry" />
        </mxCell>
        <mxCell id="iMsWKxhrXHrFYSwetHIo-13" value="测试" style="rounded=1;whiteSpace=wrap;html=1;fontSize=16;fillColor=#d5e8d4;strokeColor=#82b366;" vertex="1" parent="1">
          <mxGeometry x="-380" y="-200" width="120" height="60" as="geometry" />
        </mxCell>
        <mxCell id="iMsWKxhrXHrFYSwetHIo-15" value="&lt;h1&gt;说明：&lt;/h1&gt;&lt;p&gt;1. 角色之间沟通，通过转换，就会存在缝隙。如何缩小沟通的缝隙以及沟通的成本？&lt;/p&gt;&lt;p&gt;2. 流程的细化，可以从前到后到方方面面，从业务流程，页面交互流程，功能实现逻辑流程等。&lt;/p&gt;" style="text;html=1;strokeColor=none;fillColor=none;spacing=5;spacingTop=-20;whiteSpace=wrap;overflow=hidden;rounded=0;fontSize=16;" vertex="1" parent="1">
          <mxGeometry x="40" y="-200" width="560" height="350" as="geometry" />
        </mxCell>
      </root>
    </mxGraphModel>
  </diagram>
  <diagram id="L6QXPprqk3mVrAM2attZ" name="第 2 页">
    <mxGraphModel dx="1314" dy="904" grid="1" gridSize="10" guides="1" tooltips="1" connect="1" arrows="1" fold="1" page="0" pageScale="1" pageWidth="827" pageHeight="1169" math="0" shadow="0">
      <root>
        <mxCell id="0" />
        <mxCell id="1" parent="0" />
      </root>
    </mxGraphModel>
  </diagram>
</mxfile>
